# xmcd
#
# Track frame offsets:
#	150
#	17367
#	31285
#	44140
#	65245
#	82140
#
# Disc length: 1268 seconds
#
# Revision: 1
# Processed by: cddbd v1.5.1PL0 Copyright (c) Steve Scherf et al.
# Submitted via: audiograbber 1.81.03
#
DISCID=4f04f206
DTITLE=Dallas Rd - Reflection
DYEAR=2004
DGENRE=Country
TTITLE0=Must Be The Weekend
TTITLE1=Maybe She Wont Lie
TTITLE2=Kicks
TTITLE3=One Heart Away
TTITLE4=Angels In My Guitar Case
TTITLE5=Stronger
EXTD=
EXTT0=
EXTT1=
EXTT2=
EXTT3=
EXTT4=
EXTT5=
PLAYORDER=
